<?xml version="1.0" encoding="utf-8"?>
<!-- Generator: Adobe Illustrator 16.0.0, SVG Export Plug-In . SVG Version: 6.00 Build 0)  -->
<!DOCTYPE svg PUBLIC "-//W3C//DTD SVG 1.1//EN" "http://www.w3.org/Graphics/SVG/1.1/DTD/svg11.dtd">
<svg version="1.1" id="Layer_1" xmlns="http://www.w3.org/2000/svg" xmlns:xlink="http://www.w3.org/1999/xlink" x="0px" y="0px"
	 width="180px" height="260px" viewBox="0 0 180 260" enable-background="new 0 0 180 260" xml:space="preserve">
<path fill="#C2BEC0" d="M180,258"/>
<rect fill="#4CBB97" width="180" height="197.5"/>
<rect y="169.25" fill="#A9CEC4" width="180" height="90.75"/>
<g>
	
		<line fill="#CAE1D6" stroke="#007A51" stroke-width="2" stroke-linecap="round" x1="59.465" y1="117.784" x2="32.998" y2="140.19"/>
</g>
<g>
	<line fill="#CAE1D6" stroke="#007A51" stroke-width="2" stroke-linecap="round" x1="50.645" y1="68.97" x2="59.465" y2="117.784"/>
	<line fill="#CAE1D6" stroke="#007A51" stroke-width="2" stroke-linecap="round" x1="62.09" y1="73.203" x2="68.706" y2="109.813"/>
</g>
<g>
	<line fill="#CAE1D6" stroke="#007A51" stroke-width="2" stroke-linecap="round" x1="50.645" y1="68.97" x2="88.511" y2="36.924"/>
</g>
<g>
	<line fill="#CAE1D6" stroke="#007A51" stroke-width="2" stroke-linecap="round" x1="50.645" y1="68.97" x2="18.011" y2="57.242"/>
</g>
<g>
	
		<line fill="#CAE1D6" stroke="#007A51" stroke-width="2" stroke-linecap="round" x1="173.062" y1="21.639" x2="219.75" y2="38.417"/>
</g>
<g>
	
		<line fill="#CAE1D6" stroke="#007A51" stroke-width="2" stroke-linecap="round" x1="219.75" y1="38.417" x2="225.557" y2="70.555"/>
</g>
<g>
	
		<line fill="#CAE1D6" stroke="#007A51" stroke-width="2" stroke-linecap="round" x1="59.465" y1="117.784" x2="106.153" y2="134.563"/>
</g>
<g>
	
		<line fill="#CAE1D6" stroke="#007A51" stroke-width="2" stroke-linecap="round" x1="135.197" y1="53.693" x2="88.511" y2="36.924"/>
	<line fill="#CAE1D6" stroke="#007A51" stroke-width="2" stroke-linecap="round" x1="125.81" y1="61.489" x2="90.794" y2="48.912"/>
</g>
<g>
	
		<line fill="#CAE1D6" stroke="#007A51" stroke-width="2" stroke-linecap="round" x1="106.153" y1="134.563" x2="144.018" y2="102.508"/>
	
		<line fill="#CAE1D6" stroke="#007A51" stroke-width="2" stroke-linecap="round" x1="104.095" y1="122.534" x2="132.492" y2="98.493"/>
</g>
<g>
	
		<line fill="#CAE1D6" stroke="#007A51" stroke-width="2" stroke-linecap="round" x1="135.197" y1="53.693" x2="173.062" y2="21.639"/>
</g>
<g>
	
		<line fill="#CAE1D6" stroke="#007A51" stroke-width="2" stroke-linecap="round" x1="144.018" y1="102.508" x2="135.197" y2="53.693"/>
</g>
<text x="33" y="209" xml:space="preserve" font-family="华文行楷" font-size="27" fill="#000000" stroke="none" stroke-opacity="0">
诗歌鉴赏</text>
</svg>
