<?xml version="1.0" encoding="utf-8"?>
<!-- Generator: Adobe Illustrator 16.0.0, SVG Export Plug-In . SVG Version: 6.00 Build 0)  -->
<!DOCTYPE svg PUBLIC "-//W3C//DTD SVG 1.1//EN" "http://www.w3.org/Graphics/SVG/1.1/DTD/svg11.dtd">
<svg version="1.1" id="Layer_1" xmlns="http://www.w3.org/2000/svg" xmlns:xlink="http://www.w3.org/1999/xlink" x="0px" y="0px"
	 width="180px" height="260px" viewBox="0 0 180 260" enable-background="new 0 0 180 260" xml:space="preserve">
<rect fill="#A6A1A5" width="180" height="260"/>
<polyline fill="#C2BEC0" points="180,103 180,8.5 0,260 "/>
<polygon fill="#657584" points="0,116.5 180,0 0,0 "/>
<path fill="#C2BEC0" d="M180,258"/>
<g>
	<g>
		<g enable-background="new    ">
			<g>
				<polygon fill="#5C5155" points="154.631,178.752 131.838,166.354 165.873,183.732 188.667,196.131 				"/>
			</g>
			<g>
				<polygon fill="#817278" points="154.631,178.752 188.667,196.131 165.729,235.615 134.906,248.514 108.893,185.182 				"/>
			</g>
			<g>
				<polygon fill="#4A4245" points="134.906,248.514 112.111,236.113 86.099,172.781 108.893,185.182 				"/>
			</g>
			<g>
				<polygon fill="#695D61" points="108.893,185.182 86.099,172.781 131.838,166.354 154.631,178.752 				"/>
			</g>
		</g>
	</g>
</g>
<g>
	<g>
		<g enable-background="new    ">
			<g>
				<polygon fill="#586673" points="114.168,212.475 121.214,252.3 86.551,232.684 				"/>
			</g>
			<g>
				<polygon fill="#333B42" points="121.214,252.3 98.42,239.9 63.757,220.284 86.551,232.684 				"/>
			</g>
			<g>
				<polygon fill="#454F5A" points="86.551,232.684 63.757,220.284 91.375,200.075 114.168,212.475 				"/>
			</g>
		</g>
	</g>
</g>
<text x="51" y="72" xml:space="preserve" font-family="华文行楷" font-size="27" fill="#000000" stroke="none" stroke-opacity="0">
诗歌鉴赏</text>
</svg>
