<?xml version="1.0" encoding="utf-8"?>
<!-- Generator: Adobe Illustrator 16.0.0, SVG Export Plug-In . SVG Version: 6.00 Build 0)  -->
<!DOCTYPE svg PUBLIC "-//W3C//DTD SVG 1.1//EN" "http://www.w3.org/Graphics/SVG/1.1/DTD/svg11.dtd">
<svg version="1.1" id="Layer_1" xmlns="http://www.w3.org/2000/svg" xmlns:xlink="http://www.w3.org/1999/xlink" x="0px" y="0px"
	 width="180px" height="260px" viewBox="0 0 180 260" enable-background="new 0 0 180 260" xml:space="preserve">
<defs>
<radialGradient id="radialGradient">
<stop offset="0%" stop-color="rgb(154,120,0)" stop-opacity="1" />
<stop offset="49%" stop-color="rgb(255,249,227)" stop-opacity="1" />
<stop offset="50%" stop-color="rgb(255,255,255)" stop-opacity="1" />
<stop offset="51%" stop-color="rgb(255,255,255)" stop-opacity="1" />
<stop offset="100%" stop-color="rgb(0,0,128)" stop-opacity="1" />
</radialGradient>
<radialGradient id="radialGradient1">
<stop stop-color="white" stop-opacity="1" offset="0" />
<stop stop-color="black" stop-opacity="1" offset="1" />
</radialGradient>
<radialGradient id="radialGradient2">
<stop offset="0%" stop-color="rgb(255,0,0)" stop-opacity="1" />
<stop offset="50%" stop-color="rgb(0,255,0)" stop-opacity="1" />
<stop offset="100%" stop-color="rgb(0,0,255)" stop-opacity="1" />
</radialGradient>
<radialGradient id="radialGradient3">
<stop offset="1" stop-color="black" stop-opacity="1" />
<stop offset="0" stop-color="rgb(255,0,0)" stop-opacity="1" />
</radialGradient>
<radialGradient id="radialGradient4">
<stop offset="0%" stop-color="rgb(154,120,0)" stop-opacity="1" />
<stop offset="49%" stop-color="rgb(255,249,227)" stop-opacity="1" />
<stop offset="50%" stop-color="rgb(255,255,255)" stop-opacity="1" />
<stop offset="51%" stop-color="rgb(255,255,255)" stop-opacity="1" />
<stop offset="100%" stop-color="rgb(0,0,128)" stop-opacity="1" />
</radialGradient>
</defs>
<rect x="-0.333" fill="#EBC989" width="182.5" height="260"/>
<circle fill="none" stroke="#231F20" stroke-miterlimit="10" cx="92.25" cy="44.333" r="9.416"/>
<g>
	<path d="M94.341,49.354c-0.17-0.493-0.289-1.02-0.34-1.53c-0.629,0.901-1.292,1.53-2.465,1.53c-1.649,0-2.499-1.343-2.499-2.856
		c0-1.717,0.969-3.195,2.703-3.195c0.73,0,1.563,0.289,2.192,0.595c0.051-2.278-0.356-3.229-1.836-3.229
		c-0.781,0-1.444,0.272-2.158,0.595l-0.188-0.731c0.782-0.306,1.547-0.544,2.396-0.544c1.649,0,2.635,1.156,2.584,3.162
		l-0.102,3.672c-0.018,0.867,0.204,1.683,0.441,2.431L94.341,49.354z M93.882,44.526c-0.562-0.289-1.241-0.544-1.955-0.544
		c-1.496,0-2.091,1.258-2.091,2.584c0,1.003,0.562,2.107,1.7,2.107c1.122,0,1.802-0.901,2.346-1.818V44.526z"/>
</g>
<text x="93" y="80" xml:space="preserve" font-family="Microsoft YaHei UI" font-size="12" fill="#EBC989" stroke="none" stroke-opacity="0">
</text>
<text x="91" y="76" xml:space="preserve" writing-mode="tb" font-family="Microsoft YaHei UI" font-size="12" fill="#EBC989" stroke="none" stroke-opacity="0" baseline-shift="baseline">
</text>
<text x="129" y="81" xml:space="preserve" writing-mode="tb" font-family="华文行楷" font-size="27" fill="#000000" stroke="none" stroke-opacity="0" baseline-shift="baseline">
诗歌鉴赏</text>
<text x="51" y="109" xml:space="preserve" writing-mode="tb" font-family="华文行楷" font-size="27" fill="#000000" stroke="none" stroke-opacity="0" baseline-shift="baseline" />
<path d="M85.38478 161.3805A26 46.5 0 1 1 91.09785 111.0414" fill="url(#radialGradient3)" stroke="none" stroke-opacity="0" />
<ellipse cx="84" cy="190.5" rx="37" ry="9.5" fill="url(#radialGradient4)" stroke="none" stroke-opacity="0" />
</svg>
