<?xml version="1.0" encoding="utf-8"?>
<!-- Generator: Adobe Illustrator 16.0.0, SVG Export Plug-In . SVG Version: 6.00 Build 0)  -->
<!DOCTYPE svg PUBLIC "-//W3C//DTD SVG 1.1//EN" "http://www.w3.org/Graphics/SVG/1.1/DTD/svg11.dtd">
<svg version="1.1" id="Layer_1" xmlns="http://www.w3.org/2000/svg" xmlns:xlink="http://www.w3.org/1999/xlink" x="0px" y="0px"
	 width="180px" height="260px" viewBox="0 0 180 260" enable-background="new 0 0 180 260" xml:space="preserve">
<rect fill="#F6A7A5" width="180" height="260"/>
<g>
	<g>
		<path fill="none" stroke="#E36E76" stroke-miterlimit="10" d="M109.5,79"/>
	</g>
</g>
<rect y="175.001" fill="#F1C0B8" width="180" height="84.999"/>
<g>
	<g>
		<g>
			<g>
				<path fill="none" stroke="#E67F82" stroke-width="1.5" d="M98.514-10.308c-1.86,0.848-3.901,1.416-6.143,1.659
					c-2.246,0.243-4.629,0.183-7.097-0.16c-4.986-0.694-10.277-2.546-15.665-5.033c-5.383-2.485-10.279-5.227-14.599-7.5
					c-4.351-2.308-8.096-4.129-10.986-5.275"/>
				<path fill="none" stroke="#E67F82" stroke-width="1.5" d="M38.436-28.428c0,0.012,0.131,0.04,0.384,0.099
					c0.254,0.059,0.626,0.15,1.11,0.287c0.969,0.272,2.362,0.729,4.094,1.424"/>
				<path fill="none" stroke="#E67F82" stroke-width="1.5" d="M98.514-10.308c4.387-2.041,7.385-5.899,7.728-10.519"/>
				<path fill="none" stroke="#E67F82" stroke-width="1.5" d="M38.362-28.176c0.019-0.004,0.135,0.041,0.377,0.129
					c0.251,0.093,0.624,0.226,1.09,0.372c0.964,0.307,2.388,0.693,4.194,1.057"/>
				<path fill="none" stroke="#E67F82" stroke-width="1.5" d="M98.514-10.308c2.725,4.171,3.29,9.1,1.235,13.216"/>
			</g>
			<g>
				<path fill="none" stroke="#E67F82" stroke-width="1.5" d="M88.499,9.89c-2.029,0.133-4.157-0.17-6.32-0.735
					c-2.163-0.593-4.364-1.539-6.562-2.731c-4.398-2.388-8.784-5.935-13.055-10.047c-4.282-4.122-7.948-8.328-11.214-12.004
					c-1.634-1.837-3.122-3.546-4.515-5.057c-1.419-1.505-2.651-2.827-3.801-3.89"/>
				<path fill="none" stroke="#E67F82" stroke-width="1.5" d="M38.362-28.176c-0.009,0.009,0.127,0.092,0.33,0.229
					c0.212,0.129,0.55,0.393,0.962,0.644c0.414,0.27,0.934,0.625,1.511,1.079c0.548,0.462,1.176,1.013,1.867,1.65"/>
				<path fill="none" stroke="#E67F82" stroke-width="1.5" d="M88.499,9.89c1.219-0.082,2.401-0.286,3.527-0.61
					c1.124-0.355,2.192-0.854,3.184-1.459c1.949-1.215,3.526-2.848,4.539-4.912"/>
				<path fill="none" stroke="#E67F82" stroke-width="1.5" d="M37.498-27.213c0.546-0.546,2.31,0.718,5.534,2.638"/>
				<path fill="none" stroke="#E67F82" stroke-width="1.5" d="M88.499,9.89c1.061,4.755,0.02,9.273-2.737,11.971"/>
			</g>
			<g>
				<path fill="none" stroke="#E67F82" stroke-width="1.5" d="M74.886,23.645c-7.021-2.302-14.834-9.618-21.826-19.199
					c-7.001-9.594-11.633-19.158-14.031-25.177"/>
				<path fill="none" stroke="#E67F82" stroke-width="1.5" d="M37.498-27.213c-0.521,0.527,0.11,2.854,1.53,6.481"/>
				<path fill="none" stroke="#E67F82" stroke-width="1.5" d="M74.886,23.645c4.191,1.386,8.109,0.943,10.876-1.784"/>
				<path fill="none" stroke="#E67F82" stroke-width="1.5" d="M31.926-22.745c1.48-1.06,3.88-0.152,7.103,2.013"/>
				<path fill="none" stroke="#E67F82" stroke-width="1.5" d="M74.886,23.645c0.457,4.418-0.565,7.913-2.849,9.545"/>
			</g>
			<g>
				<path fill="none" stroke="#E67F82" stroke-width="1.5" d="M62.943,32.347c-2.999-1.7-6.326-4.469-9.762-8.023
					c-3.446-3.549-6.995-7.88-10.377-12.763c-3.379-4.878-6.132-9.769-8.162-14.285c-2.022-4.523-3.32-8.678-3.869-12.048"/>
				<path fill="none" stroke="#E67F82" stroke-width="1.5" d="M31.926-22.745c-1.468,1.052-1.811,3.925-1.152,7.973"/>
				<path fill="none" stroke="#E67F82" stroke-width="1.5" d="M62.943,32.347c3.604,2.037,6.801,2.483,9.094,0.843"/>
				<path fill="none" stroke="#E67F82" stroke-width="1.5" d="M22.018-15.905c2.19-1.525,5.226-0.954,8.756,1.133"/>
				<path fill="none" stroke="#E67F82" stroke-width="1.5" d="M62.943,32.347c0.585,4.099,0.07,7.075-1.537,8.194"/>
			</g>
			<g>
				<path fill="none" stroke="#E67F82" stroke-width="1.5" d="M56.188,37.036c-1.133-1.024-2.503-2.18-4.081-3.434
					c-2.472-1.966-5.462-4.156-8.764-6.555c-3.298-2.405-6.902-5.018-10.467-7.935c-3.501-2.865-6.63-5.8-9.132-8.845
					c-2.506-3.042-4.402-6.209-5.465-9.343c-0.691-1.993-1.047-3.982-1.064-5.904"/>
				<path fill="none" stroke="#E67F82" stroke-width="1.5" d="M22.018-15.905c-0.576,0.405-0.983,0.856-1.45,1.507
					c-0.715,0.828-1.356,1.773-1.854,2.771c-1.003,2.005-1.527,4.259-1.499,6.648"/>
				<path fill="none" stroke="#E67F82" stroke-width="1.5" d="M56.188,37.036c1.406,1.268,2.44,2.326,3.125,3.09
					c0.35,0.38,0.582,0.688,0.763,0.864c0.439,0.012,0.961-0.189,1.331-0.449"/>
				<path fill="none" stroke="#E67F82" stroke-width="1.5" d="M4.387-0.908c1.924-2.219,4.675-3.632,7.776-4.076
					c1.629-0.238,3.33-0.234,5.053,0.004"/>
				<path fill="none" stroke="#E67F82" stroke-width="1.5" d="M56.188,37.036c0.78,1.01,1.483,1.85,2.077,2.515
					c0.568,0.637,1.035,1.112,1.359,1.429c0.323,0.316,0.503,0.475,0.491,0.485"/>
			</g>
			<g>
				<path fill="none" stroke="#E67F82" stroke-width="1.5" d="M54.595,38.739c-2.981-1.249-7.097-2.633-11.896-4.063
					c-4.812-1.455-10.317-2.97-16.081-5.038c-5.599-2.008-10.777-4.427-14.914-7.436c-4.164-2.996-7.24-6.574-8.794-10.366"/>
				<path fill="none" stroke="#E67F82" stroke-width="1.5" d="M4.387-0.908C1.466,2.507,1.043,7.317,2.91,11.836"/>
				<path fill="none" stroke="#E67F82" stroke-width="1.5" d="M54.595,38.739c1.79,0.741,3.181,1.422,4.106,1.922
					c0.463,0.25,0.815,0.456,1.05,0.596c0.235,0.141,0.356,0.217,0.364,0.208"/>
				<path fill="none" stroke="#E67F82" stroke-width="1.5" d="M-6.55,20.42c0.545-2.182,1.739-4.064,3.359-5.531
					c1.656-1.456,3.729-2.501,6.101-3.052"/>
				<path fill="none" stroke="#E67F82" stroke-width="1.5" d="M54.595,38.739c1.641,1.045,2.997,1.793,3.936,2.263
					c0.472,0.237,0.839,0.406,1.088,0.518c0.25,0.112,0.38,0.167,0.378,0.178"/>
			</g>
			<g>
				<path fill="none" stroke="#E67F82" stroke-width="1.5" d="M54.124,41.029c-3.098-0.105-7.238-0.155-12.151,0.274
					c-4.906,0.625-10.493,0.919-16.43,0.752c-5.932-0.166-11.508-0.846-16.34-1.933c-4.835-1.283-8.917-3.791-11.801-6.849"/>
				<path fill="none" stroke="#E67F82" stroke-width="1.5" d="M-6.55,20.42c-1.13,4.368,0.485,9.154,3.953,12.854"/>
				<path fill="none" stroke="#E67F82" stroke-width="1.5" d="M54.124,41.029c1.857,0.083,3.326,0.246,4.33,0.4
					c0.502,0.076,0.887,0.148,1.147,0.2s0.395,0.082,0.397,0.069"/>
				<path fill="none" stroke="#E67F82" stroke-width="1.5" d="M-8.897,42.671c0.017-0.705,0.17-1.394,0.449-2.06
					c0.138-0.343,0.316-0.626,0.52-0.933l0.159-0.224l0.084-0.111l0.087-0.191c0.119-0.26,0.246-0.517,0.381-0.769
					c1.083-2.038,2.662-3.765,4.62-5.11"/>
				<path fill="none" stroke="#E67F82" stroke-width="1.5" d="M54.124,41.029c1.83,0.43,3.319,0.664,4.321,0.721l0.348,0.022
					c0.027,0.003,0.054-0.002,0.08,0.009l0.076,0.089l0.143,0.179c0.185,0.233,0.333,0.496,0.461,0.708
					c0.252,0.442,0.377,0.889,0.366,1.34"/>
			</g>
			<g>
				<path fill="none" stroke="#E67F82" stroke-width="1.5" d="M54.047,48.541c-1.529,0.542-3.303,1.036-5.315,1.583
					c-2.011,0.542-4.245,1.092-6.632,1.604c-4.789,1.054-10.296,2.105-16.195,2.793c-5.895,0.688-11.503,0.771-16.467,0.119
					c-2.491-0.339-4.785-0.83-6.864-1.485c-2.077-0.65-3.957-1.508-5.539-2.448"/>
				<path fill="none" stroke="#E67F82" stroke-width="1.5" d="M-8.897,42.671c-0.044,1.364,0.515,2.917,1.515,4.232
					c1.013,1.366,2.534,2.713,4.418,3.805"/>
				<path fill="none" stroke="#E67F82" stroke-width="1.5" d="M54.047,48.541c1.85-0.691,3.291-1.307,4.296-2.038
					c1.021-0.781,1.54-1.458,1.575-2.405"/>
				<path fill="none" stroke="#E67F82" stroke-width="1.5" d="M-7.961,60.971c-0.188-1.156-0.146-2.188,0-3.238
					c0.172-0.894,0.468-1.789,0.904-2.624c0.909-1.598,2.284-3.126,4.093-4.401"/>
				<path fill="none" stroke="#E67F82" stroke-width="1.5" d="M54.047,48.541c1.879,0.507,3.396,0.938,4.422,1.433
					c0.526,0.209,0.944,0.389,1.226,0.598c0.278,0.049,0.391,0.154,0.42,0.135"/>
			</g>
			<g>
				<path fill="none" stroke="#E67F82" stroke-width="1.5" d="M54.517,52.739c-2.889,1.262-6.621,3.236-10.945,5.716
					c-4.326,2.459-9.169,5.389-14.544,8.093c-5.288,2.662-10.547,4.707-15.464,5.561c-4.872,0.856-9.562,0.574-13.245-1.016"/>
				<path fill="none" stroke="#E67F82" stroke-width="1.5" d="M-7.961,60.971c0.348,2.262,1.247,4.351,2.707,6.072
					c0.716,0.865,1.543,1.646,2.462,2.328c0.948,0.674,1.994,1.25,3.111,1.722"/>
				<path fill="none" stroke="#E67F82" stroke-width="1.5" d="M54.517,52.739c1.72-0.762,3.119-1.275,4.086-1.585
					c0.949-0.309,1.551-0.432,1.512-0.448"/>
				<path fill="none" stroke="#E67F82" stroke-width="1.5" d="M-0.568,84.307c-1.017-2.034-1.538-4.243-1.325-6.531
					c0.087-1.136,0.311-2.272,0.667-3.387c0.372-1.121,0.906-2.231,1.544-3.296"/>
				<path fill="none" stroke="#E67F82" stroke-width="1.5" d="M54.517,52.739c1.813-0.435,3.235-0.876,4.193-1.218
					c0.479-0.17,0.842-0.314,1.089-0.414c0.246-0.1,0.372-0.155,0.377-0.144"/>
			</g>
			<g>
				<path fill="none" stroke="#E67F82" stroke-width="1.5" d="M55.592,54.814c-2.272,2.172-5.119,5.321-8.275,9.08
					c-3.183,3.756-6.722,8.161-10.828,12.528c-4.064,4.323-8.285,8.033-12.674,10.581c-2.185,1.272-4.425,2.279-6.616,2.925
					c-2.17,0.627-4.326,0.923-6.396,0.875"/>
				<path fill="none" stroke="#E67F82" stroke-width="1.5" d="M-0.568,84.307c0.513,1.012,1.227,1.893,1.995,2.69
					c0.792,0.784,1.623,1.5,2.636,2.029c2.012,1.068,4.23,1.737,6.739,1.776"/>
				<path fill="none" stroke="#E67F82" stroke-width="1.5" d="M55.592,54.814c1.349-1.302,2.55-2.311,3.325-2.915
					c0.809-0.632,1.305-0.937,1.259-0.938"/>
				<path fill="none" stroke="#E67F82" stroke-width="1.5" d="M14.895,103.126c-3.578-2.856-4.949-7.552-4.093-12.324"/>
				<path fill="none" stroke="#E67F82" stroke-width="1.5" d="M55.592,54.814c1.583-1.055,2.768-1.957,3.561-2.616
					c0.396-0.327,0.689-0.589,0.886-0.767c0.196-0.178,0.297-0.274,0.307-0.267"/>
			</g>
			<g>
				<path fill="none" stroke="#E67F82" stroke-width="1.5" d="M57.554,56.352c-0.218,0.782-0.47,1.624-0.75,2.519
					c-0.263,0.887-0.544,1.819-0.863,2.804c-0.634,1.967-1.389,4.126-2.258,6.426c-1.743,4.598-3.929,9.766-6.688,15.024
					c-2.758,5.256-5.8,9.96-9.051,13.743c-1.623,1.892-3.294,3.556-4.984,4.952c-0.844,0.696-1.693,1.335-2.541,1.887
					c-0.849,0.532-1.697,0.991-2.541,1.373"/>
				<path fill="none" stroke="#E67F82" stroke-width="1.5" d="M14.895,103.126c0.806,0.648,1.68,1.192,2.6,1.627
					c0.874,0.494,1.889,0.759,2.88,0.977c2.542,0.503,5.526,0.486,7.503-0.652"/>
				<path fill="none" stroke="#E67F82" stroke-width="1.5" d="M57.554,56.352c0.339-2.19,1.499-3.368,2.082-4.112
					c0.175-0.264,0.351-0.528,0.529-0.797c0.124-0.179,0.189-0.271,0.18-0.278"/>
				<path fill="none" stroke="#E67F82" stroke-width="1.5" d="M32.656,114.48c-1.46-0.774-2.614-2.014-3.418-3.601
					c-0.804-1.581-1.263-3.51-1.36-5.801"/>
				<path fill="none" stroke="#E67F82" stroke-width="1.5" d="M57.554,56.352c1.376-1.28,2.65-2.285,3.696-2.877
					c1.039-0.59,1.845-0.769,2.42-0.441"/>
			</g>
			<g>
				<path fill="none" stroke="#E67F82" stroke-width="1.5" d="M65.007,60.137c-0.16,3.263-0.802,7.493-1.889,12.309
					c-1.093,4.815-2.633,10.215-4.736,15.768c-2.102,5.551-4.545,10.587-7.229,14.763c-2.678,4.177-5.599,7.492-8.51,9.647"/>
				<path fill="none" stroke="#E67F82" stroke-width="1.5" d="M32.656,114.48c2.86,1.397,6.46,0.654,9.986-1.857"/>
				<path fill="none" stroke="#E67F82" stroke-width="1.5" d="M65.007,60.137c0.265-3.951-0.034-6.494-1.337-7.104"/>
				<path fill="none" stroke="#E67F82" stroke-width="1.5" d="M47.696,120.947c-1.286-0.442-2.458-1.517-3.315-2.942
					c-0.862-1.433-1.448-3.258-1.739-5.381"/>
				<path fill="none" stroke="#E67F82" stroke-width="1.5" d="M65.007,60.137c1.363-1.458,2.6-2.55,3.682-3.2
					c1.091-0.651,1.971-0.851,2.876-0.549"/>
			</g>
			<g>
				<path fill="none" stroke="#E67F82" stroke-width="1.5" d="M74.517,63.649c0.277,3.346,0.061,7.655-0.648,12.552
					c-0.678,4.893-1.89,10.364-3.67,16.029c-1.78,5.663-3.921,10.846-6.237,15.229c-2.338,4.364-4.889,7.911-7.43,10.333"/>
				<path fill="none" stroke="#E67F82" stroke-width="1.5" d="M47.696,120.947c2.626,0.941,5.84-0.2,8.835-3.154"/>
				<path fill="none" stroke="#E67F82" stroke-width="1.5" d="M74.517,63.649c-0.411-4.018-1.221-6.652-2.952-7.261"/>
				<path fill="none" stroke="#E67F82" stroke-width="1.5" d="M61.223,125.479c-1.189-0.374-2.096-1.209-2.93-2.546
					c-0.816-1.327-1.407-3.069-1.762-5.141"/>
				<path fill="none" stroke="#E67F82" stroke-width="1.5" d="M74.517,63.649c1.34-1.516,2.615-2.647,3.791-3.322
					c1.156-0.676,2.387-0.878,3.404-0.558"/>
			</g>
			<g>
				<path fill="none" stroke="#E67F82" stroke-width="1.5" d="M85.822,67.199c0.261,1.698,0.381,3.632,0.359,5.755
					c-0.004,2.132-0.146,4.457-0.45,6.915c-0.602,4.92-1.818,10.392-3.609,16.054c-1.791,5.659-3.935,10.839-6.172,15.244
					c-1.122,2.202-2.258,4.212-3.407,5.987c-1.169,1.772-2.345,3.309-3.502,4.573"/>
				<path fill="none" stroke="#E67F82" stroke-width="1.5" d="M61.223,125.479c1.156,0.358,2.49,0.206,3.782-0.452
					c1.286-0.66,2.646-1.783,4.036-3.3"/>
				<path fill="none" stroke="#E67F82" stroke-width="1.5" d="M85.822,67.199c-0.315-2.039-0.833-3.738-1.552-5.012
					c-0.713-1.273-1.506-2.091-2.559-2.417"/>
				<path fill="none" stroke="#E67F82" stroke-width="1.5" d="M72.905,129.103c-1.009-0.318-1.816-1.142-2.436-2.394
					c-0.587-1.246-1.154-2.951-1.429-4.981"/>
				<path fill="none" stroke="#E67F82" stroke-width="1.5" d="M85.822,67.199c1.428-1.502,2.744-2.648,4.154-3.257
					c1.38-0.622,2.699-0.776,3.897-0.399"/>
			</g>
			<g>
				<path fill="none" stroke="#E67F82" stroke-width="1.5" d="M98.702,71.352c0.589,3.472,0.544,7.925-0.288,12.807
					c-0.813,4.897-2.355,10.282-4.491,15.823c-2.134,5.539-4.588,10.584-7.009,14.885c-2.445,4.301-4.773,7.846-6.991,10.359"/>
				<path fill="none" stroke="#E67F82" stroke-width="1.5" d="M72.905,129.103c1.043,0.319,2.085,0.102,3.24-0.571
					c1.161-0.672,2.431-1.799,3.777-3.307"/>
				<path fill="none" stroke="#E67F82" stroke-width="1.5" d="M98.702,71.352c-0.344-2.077-0.936-3.83-1.762-5.171
					c-0.831-1.345-1.899-2.278-3.067-2.637"/>
				<path fill="none" stroke="#E67F82" stroke-width="1.5" d="M82.503,132.45c-1.657-0.605-2.367-3.216-2.581-7.225"/>
				<path fill="none" stroke="#E67F82" stroke-width="1.5" d="M98.702,71.352c3.154-2.836,6.451-3.914,9.128-2.902"/>
			</g>
			<g>
				<path fill="none" stroke="#E67F82" stroke-width="1.5" d="M112.92,77.054c0.462,3.658,0.004,8.074-1.318,12.854
					c-1.312,4.771-3.497,9.951-6.304,15.193c-2.798,5.226-5.828,9.925-8.694,13.968c-2.863,4.028-5.527,7.367-7.731,9.723"/>
				<path fill="none" stroke="#E67F82" stroke-width="1.5" d="M82.503,132.45c0.731,0.317,1.64,0.113,2.72-0.527
					c1.071-0.639,2.359-1.729,3.65-3.132"/>
				<path fill="none" stroke="#E67F82" stroke-width="1.5" d="M112.92,77.054c-0.292-2.229-0.837-4.032-1.693-5.496
					c-0.852-1.456-1.997-2.527-3.396-3.108"/>
				<path fill="none" stroke="#E67F82" stroke-width="1.5" d="M89.7,135.825c-0.272-0.16-0.471-0.439-0.61-0.83
					c-0.189-0.376-0.315-0.864-0.387-1.458c-0.143-1.186-0.069-2.791,0.17-4.747"/>
				<path fill="none" stroke="#E67F82" stroke-width="1.5" d="M112.92,77.054c1.842-1.173,3.68-1.917,5.421-2.182
					c0.87-0.133,1.715-0.146,2.521-0.036c0.822,0.159,1.608,0.447,2.34,0.863"/>
			</g>
			<g>
				<path fill="none" stroke="#E67F82" stroke-width="1.5" d="M127.749,85.406c0.01,3.773-1.054,8.033-3.16,12.604
					c-2.095,4.568-5.172,9.268-8.865,13.917c-3.691,4.647-7.521,8.731-10.944,12.214c-3.421,3.47-6.588,6.444-9.005,8.516"/>
				<path fill="none" stroke="#E67F82" stroke-width="1.5" d="M89.7,135.825c0.543,0.319,1.339,0.144,2.39-0.431
					c1.039-0.571,2.202-1.482,3.685-2.737"/>
				<path fill="none" stroke="#E67F82" stroke-width="1.5" d="M127.749,85.406c-0.008-2.233-0.412-4.341-1.182-5.971
					c-0.767-1.618-1.903-2.905-3.365-3.736"/>
				<path fill="none" stroke="#E67F82" stroke-width="1.5" d="M94.794,139.269c-0.404-0.317-0.412-1.071-0.203-2.199
					c0.146-1.095,0.566-2.583,1.184-4.412"/>
				<path fill="none" stroke="#E67F82" stroke-width="1.5" d="M127.749,85.406c2.091-0.824,4.132-1.206,6.01-1.119
					c1.864,0.156,3.559,0.844,4.952,1.982"/>
			</g>
			<g>
				<path fill="none" stroke="#E67F82" stroke-width="1.5" d="M139.98,95.144c-0.823,1.357-1.863,2.863-2.946,4.629
					c-1.09,1.763-2.251,3.755-3.482,5.921c-2.474,4.331-5.187,9.375-8.427,14.44c-3.212,5.017-6.657,9.417-10.423,12.625
					c-1.88,1.609-3.837,2.933-5.821,3.898c-1.982,0.976-4.033,1.581-5.95,1.936"/>
				<path fill="none" stroke="#E67F82" stroke-width="1.5" d="M94.794,139.269c0.199,0.16,0.485,0.21,0.857,0.163
					c0.191-0.017,0.38-0.087,0.636-0.126c0.308,0.019,0.633,0.013,0.975-0.018c0.685-0.059,1.438-0.212,2.253-0.454
					c1.086,0.019,2.26-0.035,3.416-0.241"/>
				<path fill="none" stroke="#E67F82" stroke-width="1.5" d="M139.98,95.144c0.498-0.807,0.979-1.491,1.343-2.13
					c0.092-0.897,0.094-1.733,0.002-2.496c-0.046-0.382-0.115-0.746-0.208-1.09c-0.155-0.388-0.396-0.8-0.632-1.169
					c-0.485-0.749-1.079-1.418-1.774-1.99"/>
				<path fill="none" stroke="#E67F82" stroke-width="1.5" d="M108.579,150.703c-3.75-2.48-5.818-7.261-5.648-12.11"/>
				<path fill="none" stroke="#E67F82" stroke-width="1.5" d="M139.98,95.144c1.438-1.182,2.364-2.341,3.026-3.099
					c0.323-0.388,0.562-0.696,0.72-0.905c0.16-0.21,0.239-0.321,0.249-0.313"/>
			</g>
			<g>
				<path fill="none" stroke="#E67F82" stroke-width="1.5" d="M141.949,96.554c-0.877,3.083-1.734,7.239-2.566,12.12
					c-0.852,4.874-1.677,10.447-3.02,16.335c-1.322,5.796-3.104,11.22-5.605,15.703c-2.478,4.47-5.688,8.007-9.284,9.988"/>
				<path fill="none" stroke="#E67F82" stroke-width="1.5" d="M108.579,150.703c3.761,2.523,8.601,2.4,12.895-0.003"/>
				<path fill="none" stroke="#E67F82" stroke-width="1.5" d="M141.949,96.554c0.514-1.836,1.02-3.282,1.403-4.247
					c0.19-0.484,0.352-0.853,0.462-1.1s0.172-0.374,0.161-0.381"/>
				<path fill="none" stroke="#E67F82" stroke-width="1.5" d="M131.211,159.045c-4.523-0.572-8.073-3.79-9.737-8.345"/>
				<path fill="none" stroke="#E67F82" stroke-width="1.5" d="M141.949,96.554c0.833-1.721,1.412-3.147,1.763-4.123
					c0.177-0.489,0.299-0.869,0.379-1.126c0.081-0.257,0.119-0.391,0.131-0.39"/>
			</g>
			<g>
				<path fill="none" stroke="#E67F82" stroke-width="1.5" d="M144.281,96.808c2.55,6.183,4.537,16.644,4.553,28.521
					c0.016,11.871-1.889,22.342-5.271,28.53"/>
				<path fill="none" stroke="#E67F82" stroke-width="1.5" d="M131.211,159.045c4.514,0.609,9.103-1.498,12.353-5.187"/>
				<path fill="none" stroke="#E67F82" stroke-width="1.5" d="M144.281,96.808c-0.146-1.859-0.166-3.331-0.137-4.34
					c0.014-0.504,0.038-0.893,0.057-1.154c0.02-0.262,0.033-0.398,0.021-0.399"/>
				<path fill="none" stroke="#E67F82" stroke-width="1.5" d="M150.35,159.736c-1.241,0.013-2.473-0.537-3.603-1.542
					c-1.161-1.007-2.131-2.478-3.184-4.336"/>
				<path fill="none" stroke="#E67F82" stroke-width="1.5" d="M144.281,96.808c0.73-1.858,1.724-3.333,2.659-4.341
					c0.967-1.012,1.964-1.548,3.037-1.56"/>
			</g>
			<g>
				<path fill="none" stroke="#E67F82" stroke-width="1.5" d="M155.802,96.721c2.775,6.128,5.012,16.522,5.512,28.375
					c0.501,11.874-1.152,22.406-4.308,28.665"/>
				<path fill="none" stroke="#E67F82" stroke-width="1.5" d="M150.35,159.736c2.51-0.032,4.718-2.196,6.656-5.976"/>
				<path fill="none" stroke="#E67F82" stroke-width="1.5" d="M155.802,96.721c-1.627-3.658-3.71-5.843-5.824-5.814"/>
				<path fill="none" stroke="#E67F82" stroke-width="1.5" d="M164.268,159.407c-2.771,0.157-5.204-1.987-7.262-5.646"/>
				<path fill="none" stroke="#E67F82" stroke-width="1.5" d="M155.802,96.721c1.508-3.76,3.363-5.952,5.213-6.067"/>
			</g>
			<g>
				<path fill="none" stroke="#E67F82" stroke-width="1.5" d="M166.479,96.202c1.464,2.992,2.896,7.053,4.155,11.791
					c1.268,4.754,2.407,10.242,3.12,16.138c0.713,5.893,0.887,11.497,0.452,16.458c-0.44,4.979-1.454,9.246-2.948,12.466"/>
				<path fill="none" stroke="#E67F82" stroke-width="1.5" d="M164.268,159.407c1.362-0.068,2.635-0.669,3.809-1.749
					c1.207-1.104,2.282-2.668,3.182-4.604"/>
				<path fill="none" stroke="#E67F82" stroke-width="1.5" d="M166.479,96.202c-0.878-1.793-1.761-3.198-2.644-4.133
					c-0.919-0.957-1.874-1.463-2.82-1.414"/>
				<path fill="none" stroke="#E67F82" stroke-width="1.5" d="M179.555,158.092c-1.465,0.181-2.946-0.188-4.365-1.037
					c-1.424-0.842-2.709-2.248-3.932-4.001"/>
				<path fill="none" stroke="#E67F82" stroke-width="1.5" d="M166.479,96.202c0.553-1.918,1.232-3.415,1.888-4.519
					c0.662-1.1,1.395-1.737,2.227-1.834"/>
			</g>
			<g>
				<path fill="none" stroke="#E67F82" stroke-width="1.5" d="M175.947,94.969c1.643,2.865,3.369,6.683,5.157,11.294
					c1.768,4.598,3.537,9.925,4.933,15.697c1.395,5.769,2.216,11.309,2.311,16.285c0.108,4.954-0.538,9.425-1.819,12.787"/>
				<path fill="none" stroke="#E67F82" stroke-width="1.5" d="M179.555,158.092c0.734-0.094,1.426-0.305,2.101-0.671
					c0.682-0.377,1.323-0.876,1.918-1.486c1.19-1.221,2.188-2.885,2.955-4.902"/>
				<path fill="none" stroke="#E67F82" stroke-width="1.5" d="M175.947,94.969c-0.992-1.72-1.931-3.058-2.809-3.929
					c-0.438-0.436-0.863-0.754-1.274-0.946c-0.42-0.199-0.859-0.298-1.271-0.246"/>
				<path fill="none" stroke="#E67F82" stroke-width="1.5" d="M195.862,155.01c-3.057,0.696-6.427-0.728-9.334-3.978"/>
				<path fill="none" stroke="#E67F82" stroke-width="1.5" d="M175.947,94.969c0.603-3.879,1.394-6.356,2.858-6.643"/>
			</g>
		</g>
	</g>
</g>
<text x="50" y="227" xml:space="preserve" writing-mode="tb" font-family="华文楷体" font-size="24" fill="#F1C0B8" stroke="none" stroke-opacity="0" baseline-shift="baseline">
</text>
<text x="58" y="205" xml:space="preserve" font-family="华文行楷" font-size="27" fill="#000000" stroke="none" stroke-opacity="0" baseline-shift="baseline">
诗歌鉴赏</text>
</svg>
