<?xml version="1.0" encoding="utf-8"?>
<!-- Generator: Adobe Illustrator 16.0.0, SVG Export Plug-In . SVG Version: 6.00 Build 0)  -->
<!DOCTYPE svg PUBLIC "-//W3C//DTD SVG 1.1//EN" "http://www.w3.org/Graphics/SVG/1.1/DTD/svg11.dtd">
<svg version="1.1" id="Layer_1" xmlns="http://www.w3.org/2000/svg" xmlns:xlink="http://www.w3.org/1999/xlink" x="0px" y="0px" width="180px" height="260px" viewBox="0 0 180 260" enable-background="new 0 0 180 260" xml:space="preserve">
	<rect fill="#009BDB" width="180" height="260" />
	<g>
		<g>
			<g enable-background="new    ">
				<g enable-background="new    ">
					<g>
						<g>
							<defs>
								<path id="SVGID_1_" d="M12.412,11.848l70.321,23.956L29.828,176.535c-1.586,4.023-2.387,7.613-2.402,10.754&#xD;&#xA;								c-0.034,6.791,2.546,12.641,7.759,17.545c5.204,4.906,11.409,7.354,18.599,7.354c7.199,0,13.322-2.48,18.386-7.447&#xD;&#xA;								s7.614-10.971,7.649-18.021c0.035-7.043-2.455-13.012-7.469-17.918c-5.015-4.904-11.112-7.354-18.312-7.354&#xD;&#xA;								c-1.7,0-4.248,0.25-7.652,0.752l32.352-73.951c27.675,11.575,47.585,24.873,59.75,39.9&#xD;&#xA;								c12.152,15.027,18.17,33.67,18.059,55.932c-0.14,27.918-10.165,51.439-30.074,70.551c-3.438,3.305-7.022,6.299-10.728,9.031&#xD;&#xA;								H-5.981l1.033-206.42L12.412,11.848z" />
							</defs>
							<clipPath id="SVGID_2_">
								<use xlink:href="#SVGID_1_" overflow="visible" />
							</clipPath>
							<path clip-path="url(#SVGID_2_)" fill="none" stroke="#000000" stroke-width="0.25" stroke-miterlimit="10" d="M12.412,11.848&#xD;&#xA;							l70.321,23.956L29.828,176.535c-1.586,4.023-2.387,7.613-2.402,10.754c-0.034,6.791,2.546,12.641,7.759,17.545&#xD;&#xA;							c5.204,4.906,11.409,7.354,18.599,7.354c7.199,0,13.322-2.48,18.386-7.447s7.614-10.971,7.649-18.021&#xD;&#xA;							c0.035-7.043-2.455-13.012-7.469-17.918c-5.015-4.904-11.112-7.354-18.312-7.354c-1.7,0-4.248,0.25-7.652,0.752l32.352-73.951&#xD;&#xA;							c27.675,11.575,47.585,24.873,59.75,39.9c12.152,15.027,18.17,33.67,18.059,55.932c-0.14,27.918-10.165,51.439-30.074,70.551&#xD;&#xA;							c-3.438,3.305-7.022,6.299-10.728,9.031H-5.981l1.033-206.42L12.412,11.848z" />
						</g>
					</g>
				</g>
				<g enable-background="new    ">
					<g>
						<g>
							<defs>
								<path id="SVGID_3_" d="M13.251,25.63l70.321,23.956L30.667,190.318c-1.586,4.021-2.387,7.611-2.402,10.752&#xD;&#xA;								c-0.034,6.793,2.546,12.641,7.759,17.545c5.204,4.906,11.409,7.354,18.599,7.354c7.199,0,13.321-2.482,18.386-7.447&#xD;&#xA;								c5.064-4.967,7.614-10.971,7.649-18.021c0.035-7.043-2.455-13.012-7.469-17.916c-5.015-4.905-11.112-7.354-18.312-7.354&#xD;&#xA;								c-1.7,0-4.248,0.252-7.652,0.754l32.352-73.951c27.675,11.575,47.585,24.873,59.75,39.898&#xD;&#xA;								c12.153,15.026,18.17,33.672,18.06,55.932c-0.141,27.919-10.166,51.438-30.076,70.552c-3.437,3.305-7.021,6.299-10.727,9.032&#xD;&#xA;								H-5.143L-4.11,71.025L13.251,25.63z" />
							</defs>
							<clipPath id="SVGID_4_">
								<use xlink:href="#SVGID_3_" overflow="visible" />
							</clipPath>
							<path clip-path="url(#SVGID_4_)" fill="none" stroke="#000000" stroke-width="0.25" stroke-miterlimit="10" d="M13.251,25.63&#xD;&#xA;							l70.321,23.956L30.667,190.318c-1.586,4.021-2.387,7.611-2.402,10.752c-0.034,6.793,2.546,12.641,7.759,17.545&#xD;&#xA;							c5.204,4.906,11.409,7.354,18.599,7.354c7.199,0,13.321-2.482,18.386-7.447c5.064-4.967,7.614-10.971,7.649-18.021&#xD;&#xA;							c0.035-7.043-2.455-13.012-7.469-17.916c-5.015-4.905-11.112-7.354-18.312-7.354c-1.7,0-4.248,0.252-7.652,0.754&#xD;&#xA;							l32.352-73.951c27.675,11.575,47.585,24.873,59.75,39.898c12.153,15.026,18.17,33.672,18.06,55.932&#xD;&#xA;							c-0.141,27.919-10.166,51.438-30.076,70.552c-3.437,3.305-7.021,6.299-10.727,9.032H-5.143L-4.11,71.025L13.251,25.63z" />
						</g>
					</g>
				</g>
				<g enable-background="new    ">
					<g>
						<g>
							<defs>
								<polygon id="SVGID_5_" points="13.251,25.63 12.412,11.848 82.733,35.804 83.572,49.585 							" />
							</defs>
							<clipPath id="SVGID_6_">
								<use xlink:href="#SVGID_5_" overflow="visible" />
							</clipPath>
							<polygon clip-path="url(#SVGID_6_)" fill="none" stroke="#000000" stroke-width="0.25" stroke-miterlimit="10" points="&#xD;&#xA;							13.251,25.63 12.412,11.848 82.733,35.804 83.572,49.585 						" />
						</g>
					</g>
				</g>
				<g enable-background="new    ">
					<g>
						<g>
							<defs>
								<polygon id="SVGID_7_" points="83.572,49.585 30.667,190.318 29.828,176.535 82.733,35.804 							" />
							</defs>
							<clipPath id="SVGID_8_">
								<use xlink:href="#SVGID_7_" overflow="visible" />
							</clipPath>
							<polygon clip-path="url(#SVGID_8_)" fill="none" stroke="#000000" stroke-width="0.25" stroke-miterlimit="10" points="&#xD;&#xA;							83.572,49.585 30.667,190.318 29.828,176.535 82.733,35.804 						" />
						</g>
					</g>
				</g>
				<g enable-background="new    ">
					<g>
						<g>
							<defs>
								<path id="SVGID_9_" d="M28.311,202.756c-0.28-4.594-0.559-9.188-0.839-13.781c0.37,6.078,2.936,11.365,7.712,15.859&#xD;&#xA;								c5.204,4.906,11.409,7.354,18.599,7.354c7.199,0,13.322-2.48,18.386-7.449c5.064-4.965,7.614-10.969,7.649-18.02&#xD;&#xA;								c0.003-0.631-0.014-1.254-0.051-1.867l0.839,13.783c0.038,0.613,0.054,1.234,0.051,1.865&#xD;&#xA;								c-0.035,7.051-2.585,13.055-7.649,18.021c-5.064,4.965-11.187,7.445-18.386,7.445c-7.19,0-13.396-2.445-18.599-7.354&#xD;&#xA;								C31.247,214.121,28.681,208.834,28.311,202.756z" />
							</defs>
							<clipPath id="SVGID_10_">
								<use xlink:href="#SVGID_9_" overflow="visible" />
							</clipPath>
							<g clip-path="url(#SVGID_10_)" enable-background="new    ">
								<g>
									<path fill="none" stroke="#000000" stroke-width="0.25" stroke-miterlimit="10" d="M28.265,201.07l-0.839-13.781&#xD;&#xA;									c-0.034,6.791,2.546,12.641,7.759,17.545l0.839,13.781C30.811,213.711,28.23,207.863,28.265,201.07z" />
									<line fill="none" stroke="#000000" stroke-width="0.25" stroke-miterlimit="10" x1="29.103" y1="207.547" x2="28.264" y2="193.766" />
									<line fill="none" stroke="#000000" stroke-width="0.25" stroke-miterlimit="10" x1="31.688" y1="213.396" x2="30.849" y2="199.615" />
								</g>
								<g>
									<path fill="none" stroke="#000000" stroke-width="0.25" stroke-miterlimit="10" d="M36.023,218.615l-0.839-13.781&#xD;&#xA;									c5.204,4.906,11.409,7.354,18.599,7.354l0.839,13.781C47.433,225.969,41.227,223.521,36.023,218.615z" />
									<line fill="none" stroke="#000000" stroke-width="0.25" stroke-miterlimit="10" x1="41.561" y1="222.703" x2="40.722" y2="208.92" />
									<line fill="none" stroke="#000000" stroke-width="0.25" stroke-miterlimit="10" x1="47.762" y1="225.152" x2="46.923" y2="211.371" />
								</g>
								<g>
									<path fill="none" stroke="#000000" stroke-width="0.25" stroke-miterlimit="10" d="M54.623,225.969l-0.839-13.781&#xD;&#xA;									c7.199,0,13.322-2.48,18.386-7.449l0.839,13.783C67.944,223.486,61.822,225.969,54.623,225.969z" />
									<line fill="none" stroke="#000000" stroke-width="0.25" stroke-miterlimit="10" x1="61.463" y1="225.143" x2="60.625" y2="211.359" />
									<line fill="none" stroke="#000000" stroke-width="0.25" stroke-miterlimit="10" x1="67.591" y1="222.658" x2="66.752" y2="208.877" />
								</g>
								<g>
									<path fill="none" stroke="#000000" stroke-width="0.25" stroke-miterlimit="10" d="M73.008,218.521l-0.839-13.783&#xD;&#xA;									c5.064-4.965,7.614-10.969,7.649-18.021l0.839,13.781C80.622,207.551,78.072,213.555,73.008,218.521z" />
									<line fill="none" stroke="#000000" stroke-width="0.25" stroke-miterlimit="10" x1="77.234" y1="213.209" x2="76.396" y2="199.426" />
									<line fill="none" stroke="#000000" stroke-width="0.25" stroke-miterlimit="10" x1="79.784" y1="207.201" x2="78.945" y2="193.42" />
								</g>
								<g>
									<path fill="none" stroke="#000000" stroke-width="0.25" stroke-miterlimit="10" d="M80.657,200.5l-0.839-13.781&#xD;&#xA;									c0.035-7.043-2.455-13.012-7.469-17.918l0.839,13.783C78.203,187.488,80.692,193.457,80.657,200.5z" />
								</g>
							</g>
						</g>
					</g>
					<g>
						<g>
							<defs>
								<path id="SVGID_11_" d="M28.311,202.756c-0.28-4.594-0.559-9.188-0.839-13.781c0.37,6.078,2.936,11.365,7.712,15.859&#xD;&#xA;								c5.204,4.906,11.409,7.354,18.599,7.354c7.199,0,13.322-2.48,18.386-7.449c5.064-4.965,7.614-10.969,7.649-18.02&#xD;&#xA;								c0.003-0.631-0.014-1.254-0.051-1.867l0.839,13.783c0.038,0.613,0.054,1.234,0.051,1.865&#xD;&#xA;								c-0.035,7.051-2.585,13.055-7.649,18.021c-5.064,4.965-11.187,7.445-18.386,7.445c-7.19,0-13.396-2.445-18.599-7.354&#xD;&#xA;								C31.247,214.121,28.681,208.834,28.311,202.756z" />
							</defs>
							<clipPath id="SVGID_12_">
								<use xlink:href="#SVGID_11_" overflow="visible" />
							</clipPath>
							<path clip-path="url(#SVGID_12_)" fill="none" stroke="#000000" stroke-width="0.25" stroke-miterlimit="10" d="&#xD;&#xA;							M28.311,202.756c-0.28-4.594-0.559-9.188-0.839-13.781c0.37,6.078,2.936,11.365,7.712,15.859&#xD;&#xA;							c5.204,4.906,11.409,7.354,18.599,7.354c7.199,0,13.322-2.48,18.386-7.449c5.064-4.965,7.614-10.969,7.649-18.02&#xD;&#xA;							c0.003-0.631-0.014-1.254-0.051-1.867l0.839,13.783c0.038,0.613,0.054,1.234,0.051,1.865&#xD;&#xA;							c-0.035,7.051-2.585,13.055-7.649,18.021c-5.064,4.965-11.187,7.445-18.386,7.445c-7.19,0-13.396-2.445-18.599-7.354&#xD;&#xA;							C31.247,214.121,28.681,208.834,28.311,202.756z" />
						</g>
					</g>
				</g>
				<g enable-background="new    ">
					<g>
						<g>
							<defs>
								<path id="SVGID_13_" d="M27.472,188.975c-0.034-0.555-0.049-1.117-0.046-1.686c0.016-3.141,0.816-6.73,2.402-10.754&#xD;&#xA;								l0.839,13.783c-1.586,4.021-2.387,7.611-2.402,10.752c-0.003,0.568,0.012,1.131,0.046,1.686&#xD;&#xA;								C28.031,198.162,27.752,193.568,27.472,188.975z" />
							</defs>
							<clipPath id="SVGID_14_">
								<use xlink:href="#SVGID_13_" overflow="visible" />
							</clipPath>
							<g clip-path="url(#SVGID_14_)" enable-background="new    ">
								<g>
									<path fill="none" stroke="#000000" stroke-width="0.25" stroke-miterlimit="10" d="M30.667,190.318l-0.839-13.783&#xD;&#xA;									c-1.586,4.023-2.387,7.613-2.402,10.754l0.839,13.781C28.28,197.93,29.081,194.34,30.667,190.318z" />
									<line fill="none" stroke="#000000" stroke-width="0.25" stroke-miterlimit="10" x1="29.343" y1="194.195" x2="28.504" y2="180.414" />
									<line fill="none" stroke="#000000" stroke-width="0.25" stroke-miterlimit="10" x1="28.542" y1="197.781" x2="27.703" y2="184" />
								</g>
								<g>
									<path fill="none" stroke="#000000" stroke-width="0.25" stroke-miterlimit="10" d="M28.265,201.07l-0.839-13.781&#xD;&#xA;									c-0.034,6.791,2.546,12.641,7.759,17.545l0.839,13.781C30.811,213.711,28.23,207.863,28.265,201.07z" />
								</g>
							</g>
						</g>
					</g>
					<g>
						<g>
							<defs>
								<path id="SVGID_15_" d="M27.472,188.975c-0.034-0.555-0.049-1.117-0.046-1.686c0.016-3.141,0.816-6.73,2.402-10.754&#xD;&#xA;								l0.839,13.783c-1.586,4.021-2.387,7.611-2.402,10.752c-0.003,0.568,0.012,1.131,0.046,1.686&#xD;&#xA;								C28.031,198.162,27.752,193.568,27.472,188.975z" />
							</defs>
							<clipPath id="SVGID_16_">
								<use xlink:href="#SVGID_15_" overflow="visible" />
							</clipPath>
							<path clip-path="url(#SVGID_16_)" fill="none" stroke="#000000" stroke-width="0.25" stroke-miterlimit="10" d="&#xD;&#xA;							M27.472,188.975c-0.034-0.555-0.049-1.117-0.046-1.686c0.016-3.141,0.816-6.73,2.402-10.754l0.839,13.783&#xD;&#xA;							c-1.586,4.021-2.387,7.611-2.402,10.752c-0.003,0.568,0.012,1.131,0.046,1.686C28.031,198.162,27.752,193.568,27.472,188.975z&#xD;&#xA;							" />
						</g>
					</g>
				</g>
				<g enable-background="new    ">
					<g>
						<g>
							<defs>
								<path id="SVGID_17_" d="M80.606,198.635c-0.379-6.238-2.852-11.586-7.418-16.051c-5.015-4.906-11.112-7.355-18.312-7.355&#xD;&#xA;								c-1.7,0-4.248,0.252-7.652,0.754L46.385,162.2c3.404-0.502,5.952-0.752,7.652-0.752c7.199,0,13.297,2.448,18.312,7.354&#xD;&#xA;								c4.566,4.468,7.039,9.814,7.418,16.052C80.019,188.986,80.354,194.5,80.606,198.635z" />
							</defs>
							<clipPath id="SVGID_18_">
								<use xlink:href="#SVGID_17_" overflow="visible" />
							</clipPath>
							<g clip-path="url(#SVGID_18_)" enable-background="new    ">
								<g>
									<path fill="none" stroke="#000000" stroke-width="0.25" stroke-miterlimit="10" d="M80.657,200.5l-0.839-13.781&#xD;&#xA;									c0.035-7.043-2.455-13.012-7.469-17.918l0.839,13.783C78.203,187.488,80.692,193.457,80.657,200.5z" />
									<line fill="none" stroke="#000000" stroke-width="0.25" stroke-miterlimit="10" x1="79.851" y1="193.814" x2="79.012" y2="180.033" />
									<line fill="none" stroke="#000000" stroke-width="0.25" stroke-miterlimit="10" x1="77.361" y1="187.844" x2="76.522" y2="174.061" />
								</g>
								<g>
									<path fill="none" stroke="#000000" stroke-width="0.25" stroke-miterlimit="10" d="M73.188,182.584l-0.839-13.783&#xD;&#xA;									c-5.015-4.904-11.112-7.354-18.312-7.354l0.839,13.781C62.076,175.229,68.173,177.678,73.188,182.584z" />
									<line fill="none" stroke="#000000" stroke-width="0.25" stroke-miterlimit="10" x1="67.812" y1="178.496" x2="66.973" y2="164.715" />
									<line fill="none" stroke="#000000" stroke-width="0.25" stroke-miterlimit="10" x1="61.709" y1="176.045" x2="60.87" y2="162.264" />
								</g>
								<g>
									<path fill="none" stroke="#000000" stroke-width="0.25" stroke-miterlimit="10" d="M54.876,175.229l-0.839-13.779&#xD;&#xA;									c-1.7,0-4.248,0.25-7.652,0.752l0.839,13.781C50.628,175.48,53.176,175.229,54.876,175.229z" />
									<line fill="none" stroke="#000000" stroke-width="0.25" stroke-miterlimit="10" x1="52.894" y1="175.312" x2="52.055" y2="161.531" />
									<line fill="none" stroke="#000000" stroke-width="0.25" stroke-miterlimit="10" x1="50.343" y1="175.564" x2="49.504" y2="161.781" />
								</g>
							</g>
						</g>
					</g>
					<g>
						<g>
							<defs>
								<path id="SVGID_19_" d="M80.606,198.635c-0.379-6.238-2.852-11.586-7.418-16.051c-5.015-4.906-11.112-7.355-18.312-7.355&#xD;&#xA;								c-1.7,0-4.248,0.252-7.652,0.754L46.385,162.2c3.404-0.502,5.952-0.752,7.652-0.752c7.199,0,13.297,2.448,18.312,7.354&#xD;&#xA;								c4.566,4.468,7.039,9.814,7.418,16.052C80.019,188.986,80.354,194.5,80.606,198.635z" />
							</defs>
							<clipPath id="SVGID_20_">
								<use xlink:href="#SVGID_19_" overflow="visible" />
							</clipPath>
							<path clip-path="url(#SVGID_20_)" fill="none" stroke="#000000" stroke-width="0.25" stroke-miterlimit="10" d="&#xD;&#xA;							M80.606,198.635c-0.379-6.238-2.852-11.586-7.418-16.051c-5.015-4.906-11.112-7.355-18.312-7.355&#xD;&#xA;							c-1.7,0-4.248,0.252-7.652,0.754L46.385,162.2c3.404-0.502,5.952-0.752,7.652-0.752c7.199,0,13.297,2.448,18.312,7.354&#xD;&#xA;							c4.566,4.468,7.039,9.814,7.418,16.052C80.019,188.986,80.354,194.5,80.606,198.635z" />
						</g>
					</g>
				</g>
				<g enable-background="new    ">
					<g>
						<g>
							<defs>
								<polygon id="SVGID_21_" points="47.224,175.982 46.385,162.199 78.737,88.249 79.576,102.03 							" />
							</defs>
							<clipPath id="SVGID_22_">
								<use xlink:href="#SVGID_21_" overflow="visible" />
							</clipPath>
							<polygon clip-path="url(#SVGID_22_)" fill="none" stroke="#000000" stroke-width="0.25" stroke-miterlimit="10" points="&#xD;&#xA;							47.224,175.982 46.385,162.199 78.737,88.249 79.576,102.03 						" />
						</g>
					</g>
				</g>
				<g enable-background="new    ">
					<g>
						<g>
							<defs>
								<path id="SVGID_23_" d="M157.178,190.295c0.15,2.475,0.219,4.996,0.206,7.566c-0.14,27.918-10.165,51.438-30.075,70.551&#xD;&#xA;								c-3.437,3.305-7.021,6.299-10.727,9.033l-0.839-13.783c3.702-2.732,7.29-5.727,10.728-9.031&#xD;&#xA;								c19.909-19.111,29.937-42.633,30.074-70.551c0.014-2.572-0.057-5.094-0.206-7.568&#xD;&#xA;								C156.618,181.107,156.896,185.701,157.178,190.295z" />
							</defs>
							<clipPath id="SVGID_24_">
								<use xlink:href="#SVGID_23_" overflow="visible" />
							</clipPath>
							<g clip-path="url(#SVGID_24_)" enable-background="new    ">
								<g>
									<path fill="none" stroke="#000000" stroke-width="0.25" stroke-miterlimit="10" d="M139.325,141.93l-0.839-13.781&#xD;&#xA;									c12.152,15.027,18.17,33.669,18.059,55.932l0.839,13.78C157.495,175.602,151.479,156.957,139.325,141.93z" />
								</g>
								<g>
									<path fill="none" stroke="#000000" stroke-width="0.25" stroke-miterlimit="10" d="M157.384,197.861l-0.839-13.781&#xD;&#xA;									c-0.141,27.918-10.165,51.439-30.074,70.551l0.838,13.781C147.219,249.301,157.244,225.779,157.384,197.861z" />
									<line fill="none" stroke="#000000" stroke-width="0.25" stroke-miterlimit="10" x1="153.949" y1="224.312" x2="153.109" y2="210.531" />
									<line fill="none" stroke="#000000" stroke-width="0.25" stroke-miterlimit="10" x1="143.924" y1="247.832" x2="143.085" y2="234.049" />
								</g>
								<g>
									<path fill="none" stroke="#000000" stroke-width="0.25" stroke-miterlimit="10" d="M127.309,268.412l-0.838-13.781&#xD;&#xA;									c-3.438,3.305-7.022,6.299-10.728,9.031l0.839,13.783C120.285,274.711,123.872,271.717,127.309,268.412z" />
									<line fill="none" stroke="#000000" stroke-width="0.25" stroke-miterlimit="10" x1="123.823" y1="271.615" x2="122.984" y2="257.834" />
									<line fill="none" stroke="#000000" stroke-width="0.25" stroke-miterlimit="10" x1="120.245" y1="274.623" x2="119.406" y2="260.842" />
								</g>
							</g>
						</g>
					</g>
					<g>
						<g>
							<defs>
								<path id="SVGID_25_" d="M157.178,190.295c0.15,2.475,0.219,4.996,0.206,7.566c-0.14,27.918-10.165,51.438-30.075,70.551&#xD;&#xA;								c-3.437,3.305-7.021,6.299-10.727,9.033l-0.839-13.783c3.702-2.732,7.29-5.727,10.728-9.031&#xD;&#xA;								c19.909-19.111,29.937-42.633,30.074-70.551c0.014-2.572-0.057-5.094-0.206-7.568&#xD;&#xA;								C156.618,181.107,156.896,185.701,157.178,190.295z" />
							</defs>
							<clipPath id="SVGID_26_">
								<use xlink:href="#SVGID_25_" overflow="visible" />
							</clipPath>
							<path clip-path="url(#SVGID_26_)" fill="none" stroke="#000000" stroke-width="0.25" stroke-miterlimit="10" d="&#xD;&#xA;							M157.178,190.295c0.15,2.475,0.219,4.996,0.206,7.566c-0.14,27.918-10.165,51.438-30.075,70.551&#xD;&#xA;							c-3.437,3.305-7.021,6.299-10.727,9.033l-0.839-13.783c3.702-2.732,7.29-5.727,10.728-9.031&#xD;&#xA;							c19.909-19.111,29.937-42.633,30.074-70.551c0.014-2.572-0.057-5.094-0.206-7.568&#xD;&#xA;							C156.618,181.107,156.896,185.701,157.178,190.295z" />
						</g>
					</g>
				</g>
				<g enable-background="new    ">
					<g>
						<g>
							<defs>
								<path id="SVGID_27_" d="M156.339,176.512c0.279,4.596,0.56,9.189,0.839,13.783c-1.154-18.951-7.103-35.072-17.853-48.365&#xD;&#xA;								c-12.164-15.027-32.074-28.324-59.75-39.897L78.736,88.25c27.675,11.575,47.584,24.873,59.75,39.9&#xD;&#xA;								C149.236,141.441,155.186,157.562,156.339,176.512z" />
							</defs>
							<clipPath id="SVGID_28_">
								<use xlink:href="#SVGID_27_" overflow="visible" />
							</clipPath>
							<g clip-path="url(#SVGID_28_)" enable-background="new    ">
								<g>
									<path fill="none" stroke="#000000" stroke-width="0.25" stroke-miterlimit="10" d="M79.576,102.03l-0.839-13.782&#xD;&#xA;									c27.675,11.575,47.585,24.873,59.75,39.9l0.841,13.782C127.161,126.903,107.251,113.605,79.576,102.03z" />
									<line fill="none" stroke="#000000" stroke-width="0.25" stroke-miterlimit="10" x1="104.663" y1="114.18" x2="103.824" y2="100.398" />
									<line fill="none" stroke="#000000" stroke-width="0.25" stroke-miterlimit="10" x1="124.578" y1="127.479" x2="123.738" y2="113.697" />
								</g>
								<g>
									<path fill="none" stroke="#000000" stroke-width="0.25" stroke-miterlimit="10" d="M139.325,141.93l-0.839-13.781&#xD;&#xA;									c12.152,15.027,18.17,33.669,18.059,55.932l0.839,13.78C157.495,175.602,151.479,156.957,139.325,141.93z" />
									<line fill="none" stroke="#000000" stroke-width="0.25" stroke-miterlimit="10" x1="149.434" y1="158.162" x2="148.594" y2="144.381" />
									<line fill="none" stroke="#000000" stroke-width="0.25" stroke-miterlimit="10" x1="155.452" y1="176.807" x2="154.613" y2="163.025" />
								</g>
							</g>
						</g>
					</g>
					<g>
						<g>
							<defs>
								<path id="SVGID_29_" d="M156.339,176.512c0.279,4.596,0.56,9.189,0.839,13.783c-1.154-18.951-7.103-35.072-17.853-48.365&#xD;&#xA;								c-12.164-15.027-32.074-28.324-59.75-39.897L78.736,88.25c27.675,11.575,47.584,24.873,59.75,39.9&#xD;&#xA;								C149.236,141.441,155.186,157.562,156.339,176.512z" />
							</defs>
							<clipPath id="SVGID_30_">
								<use xlink:href="#SVGID_29_" overflow="visible" />
							</clipPath>
							<path clip-path="url(#SVGID_30_)" fill="none" stroke="#000000" stroke-width="0.25" stroke-miterlimit="10" d="&#xD;&#xA;							M156.339,176.512c0.279,4.596,0.56,9.189,0.839,13.783c-1.154-18.951-7.103-35.072-17.853-48.365&#xD;&#xA;							c-12.164-15.027-32.074-28.324-59.75-39.897L78.736,88.25c27.675,11.575,47.584,24.873,59.75,39.9&#xD;&#xA;							C149.236,141.441,155.186,157.562,156.339,176.512z" />
						</g>
					</g>
				</g>
				<g enable-background="new    ">
					<g>
						<g>
							<defs>
								<polygon id="SVGID_31_" points="116.582,277.445 -5.143,277.445 -5.981,263.662 115.743,263.662 							" />
							</defs>
							<clipPath id="SVGID_32_">
								<use xlink:href="#SVGID_31_" overflow="visible" />
							</clipPath>
							<polygon clip-path="url(#SVGID_32_)" fill="none" stroke="#000000" stroke-width="0.25" stroke-miterlimit="10" points="&#xD;&#xA;							116.582,277.445 -5.143,277.445 -5.981,263.662 115.743,263.662 						" />
						</g>
					</g>
				</g>
				<g enable-background="new    ">
					<g>
						<g>
							<defs>
								<polygon id="SVGID_33_" points="-5.143,277.445 -5.981,263.662 -4.948,57.242 -4.109,71.023 							" />
							</defs>
							<clipPath id="SVGID_34_">
								<use xlink:href="#SVGID_33_" overflow="visible" />
							</clipPath>
							<polygon clip-path="url(#SVGID_34_)" fill="none" stroke="#000000" stroke-width="0.25" stroke-miterlimit="10" points="&#xD;&#xA;							-5.143,277.445 -5.981,263.662 -4.948,57.242 -4.109,71.023 						" />
						</g>
					</g>
				</g>
				<g enable-background="new    ">
					<g>
						<g>
							<defs>
								<polygon id="SVGID_35_" points="-4.109,71.023 -4.948,57.242 12.412,11.848 13.251,25.63 							" />
							</defs>
							<clipPath id="SVGID_36_">
								<use xlink:href="#SVGID_35_" overflow="visible" />
							</clipPath>
							<polygon clip-path="url(#SVGID_36_)" fill="none" stroke="#000000" stroke-width="0.25" stroke-miterlimit="10" points="&#xD;&#xA;							-4.109,71.023 -4.948,57.242 12.412,11.848 13.251,25.63 						" />
						</g>
					</g>
				</g>
				<g enable-background="new    ">
					<g>
						<g>
							<defs>
								<path id="SVGID_37_" d="M-5.981,263.662l-0.003,0.658c-0.296-0.207-0.583-0.441-0.878-0.658H-5.981z" />
							</defs>
							<clipPath id="SVGID_38_">
								<use xlink:href="#SVGID_37_" overflow="visible" />
							</clipPath>
							<path clip-path="url(#SVGID_38_)" fill="none" stroke="#000000" stroke-width="0.25" stroke-miterlimit="10" d="&#xD;&#xA;							M-5.981,263.662l-0.003,0.658c-0.296-0.207-0.583-0.441-0.878-0.658H-5.981z" />
						</g>
					</g>
				</g>
				<g enable-background="new    ">
					<g>
						<g>
							<defs>
								<path id="SVGID_39_" d="M-5.143,277.445l-0.003,0.656c-0.296-0.207-0.583-0.441-0.879-0.656H-5.143z" />
							</defs>
							<clipPath id="SVGID_40_">
								<use xlink:href="#SVGID_39_" overflow="visible" />
							</clipPath>
							<path clip-path="url(#SVGID_40_)" fill="none" stroke="#000000" stroke-width="0.25" stroke-miterlimit="10" d="&#xD;&#xA;							M-5.143,277.445l-0.003,0.656c-0.296-0.207-0.583-0.441-0.879-0.656H-5.143z" />
						</g>
					</g>
				</g>
				<g enable-background="new    ">
					<g>
						<g>
							<defs>
								<polygon id="SVGID_41_" points="-5.143,277.445 -5.146,278.102 -5.985,264.32 -5.981,263.662 							" />
							</defs>
							<clipPath id="SVGID_42_">
								<use xlink:href="#SVGID_41_" overflow="visible" />
							</clipPath>
							<polygon clip-path="url(#SVGID_42_)" fill="none" stroke="#000000" stroke-width="0.25" stroke-miterlimit="10" points="&#xD;&#xA;							-5.143,277.445 -5.146,278.102 -5.985,264.32 -5.981,263.662 						" />
						</g>
					</g>
				</g>
				<g enable-background="new    ">
					<g>
						<g>
							<defs>
								<path id="SVGID_43_" d="M-5.146,278.102c-0.296-0.207-0.583-0.439-0.879-0.656l-0.838-13.781&#xD;&#xA;								c0.296,0.217,0.583,0.449,0.878,0.656C-5.733,268.455-5.397,273.967-5.146,278.102z" />
							</defs>
							<clipPath id="SVGID_44_">
								<use xlink:href="#SVGID_43_" overflow="visible" />
							</clipPath>
							<g clip-path="url(#SVGID_44_)" enable-background="new    ">
								<g>
									<path fill="none" stroke="#000000" stroke-width="0.25" stroke-miterlimit="10" d="M-5.146,278.102l-0.839-13.781&#xD;&#xA;									c-0.296-0.207-0.583-0.439-0.878-0.656l0.838,13.781C-5.729,277.66-5.442,277.895-5.146,278.102z" />
									<line fill="none" stroke="#000000" stroke-width="0.25" stroke-miterlimit="10" x1="-5.439" y1="277.887" x2="-6.278" y2="264.105" />
									<line fill="none" stroke="#000000" stroke-width="0.25" stroke-miterlimit="10" x1="-5.731" y1="277.666" x2="-6.57" y2="263.883" />
								</g>
							</g>
						</g>
					</g>
					<g>
						<g>
							<defs>
								<path id="SVGID_45_" d="M-5.146,278.102c-0.296-0.207-0.583-0.439-0.879-0.656l-0.838-13.781&#xD;&#xA;								c0.296,0.217,0.583,0.449,0.878,0.656C-5.733,268.455-5.397,273.967-5.146,278.102z" />
							</defs>
							<clipPath id="SVGID_46_">
								<use xlink:href="#SVGID_45_" overflow="visible" />
							</clipPath>
							<path clip-path="url(#SVGID_46_)" fill="none" stroke="#000000" stroke-width="0.25" stroke-miterlimit="10" d="&#xD;&#xA;							M-5.146,278.102c-0.296-0.207-0.583-0.439-0.879-0.656l-0.838-13.781c0.296,0.217,0.583,0.449,0.878,0.656&#xD;&#xA;							C-5.733,268.455-5.397,273.967-5.146,278.102z" />
						</g>
					</g>
				</g>
				<g enable-background="new    ">
					<g>
						<g>
							<defs>
								<polygon id="SVGID_47_" points="-6.025,277.445 -6.863,263.662 -5.981,263.662 -5.143,277.445 							" />
							</defs>
							<clipPath id="SVGID_48_">
								<use xlink:href="#SVGID_47_" overflow="visible" />
							</clipPath>
							<polygon clip-path="url(#SVGID_48_)" fill="none" stroke="#000000" stroke-width="0.25" stroke-miterlimit="10" points="&#xD;&#xA;							-6.025,277.445 -6.863,263.662 -5.981,263.662 -5.143,277.445 						" />
						</g>
					</g>
				</g>
			</g>
		</g>
	</g>
	<text x="38" y="68" xml:space="preserve" font-family="Microsoft YaHei UI" font-size="12" fill="#000000" stroke="none" stroke-opacity="0" >  </text>
	<text x="64" y="85" xml:space="preserve" font-family="华文楷体" font-size="24" fill="#000000" stroke="none" stroke-opacity="0" baseline-shift="baseline" ></text>
	<text x="129" y="95" xml:space="preserve" font-family="华文楷体" font-size="24" fill="#000000" stroke="none" stroke-opacity="0" baseline-shift="baseline" ></text>
	<text x="52" y="88" xml:space="preserve" writing-mode="tb" font-family="华文楷体" font-size="24" fill="#000000" stroke="none" stroke-opacity="0" baseline-shift="baseline" > </text>
<text x="121" y="64" xml:space="preserve" writing-mode="tb" font-family="华文行楷" font-size="27" fill="#000000" stroke="none" stroke-opacity="0" baseline-shift="baseline">
诗歌鉴赏</text>
	</svg>
