<?xml version="1.0" encoding="utf-8"?>
<!-- Generator: Adobe Illustrator 16.0.0, SVG Export Plug-In . SVG Version: 6.00 Build 0)  -->
<!DOCTYPE svg PUBLIC "-//W3C//DTD SVG 1.1//EN" "http://www.w3.org/Graphics/SVG/1.1/DTD/svg11.dtd">
<svg version="1.1" id="Layer_1" xmlns="http://www.w3.org/2000/svg" xmlns:xlink="http://www.w3.org/1999/xlink" x="0px" y="0px"
	 width="180px" height="260px" viewBox="0 0 180 260" enable-background="new 0 0 180 260" xml:space="preserve">
<rect fill="#A1CAE5" width="180" height="260"/>
<g>
	<g>
		<path fill="#72BFE8" d="M165.012,70.992c3.37-6.069,7.369-11.849,11.992-17.339c4.624-5.491,9.682-10.548,15.172-15.172
			c-8.478-0.77-16.883-1.901-25.214-3.396c-8.333-1.492-16.569-2.962-24.708-4.407c-8.142-1.445-16.161-2.695-24.059-3.757
			c-7.899-1.059-15.655-1.589-23.264-1.589c-8.574,0-15.799,0.772-21.673,2.312c-5.877,1.542-10.67,3.685-14.377,6.43
			c-3.709,2.745-6.382,6.046-8.019,9.897c-1.639,3.854-2.457,8.142-2.457,12.86c0,4.721,0.723,8.814,2.167,12.282
			s3.515,6.335,6.213,8.597c2.696,2.265,5.899,3.951,9.609,5.057c3.708,1.109,7.825,1.662,12.354,1.662
			c3.082,0,6.308-0.24,9.681-0.723c3.371-0.481,6.719-1.179,10.042-2.095c3.323-0.915,6.574-1.998,9.754-3.251
			c3.179-1.251,6.116-2.648,8.814-4.19l2.89,3.468c-6.358,3.662-13.199,6.502-20.519,8.525c-7.321,2.023-14.305,3.034-20.951,3.034
			c-5.588,0-10.598-0.745-15.027-2.24c-4.432-1.492-8.213-3.635-11.343-6.43c-3.131-2.793-5.516-6.213-7.152-10.259
			c-1.639-4.046-2.457-8.62-2.457-13.727c0-13.583,5.708-23.986,17.123-31.211s27.91-10.837,49.488-10.837
			c8.67,0,17.171,0.531,25.504,1.589c8.331,1.062,16.664,2.24,24.997,3.54c8.331,1.301,16.736,2.529,25.214,3.685
			c8.476,1.156,17.195,1.878,26.153,2.167c7.803-4.43,15.798-7.897,23.986-10.403c8.187-2.504,16.327-3.757,24.419-3.757
			c4.141,0,6.958,0.386,8.453,1.156c1.492,0.772,2.239,2.217,2.239,4.335c0,3.179-1.494,6.141-4.479,8.886
			c-2.987,2.746-7.105,5.129-12.354,7.152c-5.252,2.023-11.487,3.612-18.712,4.769c-7.225,1.156-15.027,1.734-23.408,1.734
			c-1.35,0-2.698,0-4.046,0c-1.35,0-2.697-0.047-4.046-0.145c-1.35,1.35-2.578,2.698-3.685,4.046
			c-1.108,1.35-2.145,2.745-3.106,4.19c-0.867,1.253-1.733,2.723-2.601,4.407c-0.867,1.687-1.879,3.854-3.034,6.502
			c-1.156,2.65-2.506,5.949-4.046,9.897c-1.542,3.951-3.396,8.886-5.563,14.811c-2.167,5.924-4.745,12.957-7.73,21.096
			c-2.986,8.141-6.454,17.7-10.403,28.682c-7.708,21.096-15.533,39.229-23.48,54.401c-7.946,15.172-16.399,27.599-25.358,37.279
			S95.413,241.326,85.106,245.9c-10.309,4.574-21.674,6.863-34.1,6.863c-16.377,0-28.971-3.612-37.785-10.837S0,224.349,0,210.861
			c0-4.913,0.578-9.537,1.734-13.872c1.156-4.334,2.696-8.139,4.624-11.414c1.926-3.274,4.165-5.875,6.719-7.803
			c2.551-1.926,5.274-2.891,8.164-2.891c2.503,0,4.454,0.748,5.852,2.24c1.396,1.494,2.095,3.637,2.095,6.43
			c0,1.351-0.217,2.506-0.65,3.468c-0.434,0.964-1.181,1.831-2.24,2.601c-1.061,0.772-2.506,1.59-4.335,2.457
			c-1.831,0.867-4.143,1.878-6.936,3.034c-2.795,1.253-4.865,3.012-6.213,5.274c-1.35,2.264-2.023,5.852-2.023,10.765
			c0,11.848,3.563,20.784,10.693,26.803c7.127,6.021,17.917,9.031,32.366,9.031c5.875,0,11.271-0.48,16.183-1.445
			c4.913-0.961,9.512-2.72,13.799-5.273c4.285-2.552,8.381-6.044,12.282-10.476c3.901-4.43,7.85-10.065,11.849-16.906
			c3.996-6.839,8.139-15.027,12.427-24.563c4.285-9.537,8.98-20.758,14.088-33.667c4.237-10.885,7.922-20.276,11.054-28.177
			c3.129-7.897,5.827-14.666,8.092-20.301c2.262-5.635,4.165-10.332,5.707-14.088c1.54-3.757,2.865-6.936,3.974-9.536
			c1.106-2.601,2.096-4.769,2.962-6.502C163.133,74.315,164.047,72.631,165.012,70.992z M258.643,15.362
			c-6.068,0-12.234,0.917-18.495,2.745c-6.263,1.831-12.281,4.288-18.062,7.369c5.491-0.192,10.812-0.553,15.967-1.083
			c5.152-0.528,9.753-1.179,13.799-1.951c4.046-0.77,7.272-1.612,9.682-2.529c2.406-0.914,3.612-1.854,3.612-2.817
			C265.146,15.939,262.978,15.362,258.643,15.362z"/>
	</g>
</g>
<g>
	<path d="M132.21,89.202c1.779-3.204,3.89-6.254,6.33-9.153c2.441-2.898,5.11-5.568,8.009-8.009
		c-4.475-0.406-8.912-1.003-13.31-1.792c-4.398-0.788-8.746-1.563-13.043-2.326s-8.53-1.423-12.699-1.983
		c-4.17-0.559-8.264-0.839-12.28-0.839c-4.526,0-8.34,0.408-11.44,1.22c-3.103,0.814-5.633,1.945-7.59,3.394
		c-1.958,1.449-3.369,3.192-4.232,5.225c-0.865,2.034-1.297,4.297-1.297,6.788c0,2.492,0.381,4.653,1.144,6.483
		s1.856,3.344,3.28,4.538c1.423,1.195,3.114,2.086,5.072,2.67c1.957,0.585,4.131,0.877,6.521,0.877c1.626,0,3.329-0.126,5.11-0.381
		c1.779-0.254,3.546-0.622,5.301-1.106c1.754-0.483,3.471-1.055,5.148-1.716c1.678-0.66,3.229-1.398,4.652-2.212l1.525,1.831
		c-3.355,1.933-6.967,3.433-10.83,4.5c-3.865,1.068-7.552,1.602-11.061,1.602c-2.949,0-5.594-0.394-7.932-1.182
		c-2.34-0.788-4.336-1.919-5.988-3.395c-1.652-1.474-2.911-3.28-3.775-5.415c-0.865-2.136-1.296-4.55-1.296-7.246
		c0-7.17,3.013-12.662,9.038-16.475c6.025-3.814,14.732-5.721,26.123-5.721c4.577,0,9.063,0.28,13.463,0.839
		c4.397,0.56,8.796,1.182,13.195,1.869c4.397,0.687,8.834,1.334,13.31,1.945c4.474,0.61,9.076,0.992,13.806,1.144
		c4.118-2.338,8.339-4.169,12.661-5.492c4.321-1.322,8.619-1.983,12.891-1.983c2.186,0,3.673,0.204,4.462,0.61
		c0.787,0.408,1.182,1.17,1.182,2.289c0,1.678-0.789,3.241-2.364,4.69c-1.577,1.449-3.75,2.708-6.521,3.776
		s-6.063,1.907-9.877,2.517c-3.813,0.61-7.933,0.915-12.356,0.915c-0.713,0-1.424,0-2.136,0c-0.713,0-1.424-0.025-2.136-0.076
		c-0.713,0.712-1.361,1.424-1.945,2.136c-0.585,0.712-1.132,1.449-1.64,2.212c-0.457,0.661-0.915,1.437-1.373,2.326
		c-0.457,0.89-0.991,2.034-1.602,3.432c-0.61,1.399-1.323,3.141-2.136,5.225c-0.813,2.085-1.792,4.69-2.937,7.818
		c-1.144,3.127-2.505,6.839-4.08,11.136c-1.577,4.298-3.407,9.344-5.492,15.141c-4.068,11.136-8.199,20.708-12.395,28.717
		c-4.194,8.009-8.657,14.568-13.386,19.679s-9.814,8.874-15.255,11.288c-5.441,2.415-11.44,3.623-18,3.623
		c-8.646,0-15.293-1.907-19.946-5.721c-4.652-3.813-6.979-9.279-6.979-16.398c0-2.594,0.305-5.034,0.915-7.322
		c0.61-2.288,1.423-4.297,2.441-6.025c1.017-1.729,2.199-3.102,3.547-4.119c1.346-1.017,2.784-1.525,4.309-1.525
		c1.322,0,2.352,0.395,3.089,1.183c0.737,0.789,1.106,1.92,1.106,3.394c0,0.713-0.114,1.323-0.343,1.831
		c-0.229,0.509-0.624,0.966-1.183,1.373c-0.561,0.407-1.323,0.839-2.288,1.296c-0.967,0.458-2.188,0.992-3.661,1.603
		c-1.476,0.661-2.568,1.59-3.28,2.783c-0.713,1.195-1.068,3.09-1.068,5.683c0,6.255,1.88,10.972,5.645,14.148
		c3.762,3.179,9.457,4.768,17.085,4.768c3.101,0,5.949-0.254,8.543-0.763c2.593-0.508,5.021-1.437,7.283-2.784
		c2.263-1.347,4.424-3.19,6.483-5.529s4.145-5.313,6.255-8.925c2.109-3.609,4.296-7.932,6.56-12.966
		c2.262-5.034,4.74-10.957,7.437-17.772c2.236-5.745,4.182-10.703,5.835-14.873c1.651-4.168,3.076-7.742,4.271-10.716
		c1.193-2.975,2.198-5.454,3.013-7.437c0.812-1.983,1.512-3.661,2.098-5.034c0.584-1.373,1.105-2.517,1.563-3.432
		C131.218,90.956,131.701,90.067,132.21,89.202z M181.635,59.836c-3.203,0-6.458,0.484-9.763,1.449
		c-3.307,0.967-6.483,2.263-9.534,3.89c2.898-0.101,5.707-0.292,8.428-0.572c2.72-0.279,5.148-0.623,7.284-1.03
		c2.136-0.407,3.839-0.851,5.11-1.335c1.271-0.482,1.907-0.979,1.907-1.487C185.067,60.141,183.923,59.836,181.635,59.836z"/>
</g>
<text x="33" y="101" xml:space="preserve" font-family="华文行楷" font-size="27" fill="#000000" stroke="none" stroke-opacity="0">
诗歌</text>
<text x="75" y="120" xml:space="preserve" font-family="华文行楷" font-size="27" fill="#000000" stroke="none" stroke-opacity="0" baseline-shift="baseline">
鉴赏</text>
</svg>
