<?xml version="1.0" encoding="utf-8"?>
<!-- Generator: Adobe Illustrator 16.0.0, SVG Export Plug-In . SVG Version: 6.00 Build 0)  -->
<!DOCTYPE svg PUBLIC "-//W3C//DTD SVG 1.1//EN" "http://www.w3.org/Graphics/SVG/1.1/DTD/svg11.dtd">
<svg version="1.1" id="Layer_1" xmlns="http://www.w3.org/2000/svg" xmlns:xlink="http://www.w3.org/1999/xlink" x="0px" y="0px"
	 width="20px" height="260px" viewBox="120 -120 20 260" enable-background="new 120 -120 20 260" xml:space="preserve">
<rect x="120" y="-120" fill="#EBC989" width="20" height="260" transform="matrix(1,0,0,1,-2,-34)" xmlns="http://www.w3.org/2000/svg" />
<circle fill="none" stroke="#231F20" stroke-miterlimit="10" cx="130.553" cy="-109.469" r="5.416" transform="matrix(1,0,0,1,-2,-5)" xmlns="http://www.w3.org/2000/svg" />
<g transform="matrix(1,0,0,1,-2,-5)" xmlns="http://www.w3.org/2000/svg">
	<path fill="#010101" d="M131.755-106.582c-0.098-0.284-0.166-0.586-0.194-0.88c-0.361,0.519-0.744,0.88-1.417,0.88&#xD;
		c-0.95,0-1.437-0.773-1.437-1.643c0-0.987,0.556-1.837,1.554-1.837c0.42,0,0.899,0.166,1.26,0.343&#xD;
		c0.029-1.311-0.203-1.858-1.056-1.858c-0.449,0-0.83,0.156-1.241,0.342l-0.107-0.42c0.45-0.177,0.89-0.312,1.378-0.312&#xD;
		c0.948,0,1.516,0.664,1.485,1.817l-0.058,2.114c-0.011,0.498,0.117,0.968,0.252,1.397L131.755-106.582z M131.492-109.359&#xD;
		c-0.323-0.167-0.713-0.312-1.124-0.312c-0.86,0-1.204,0.723-1.203,1.485c0,0.577,0.323,1.212,0.979,1.212&#xD;
		c0.644,0,1.036-0.519,1.349-1.044L131.492-109.359z" />
</g>
<text x="125" y="-55" xml:space="preserve" writing-mode="tb" font-family="华文行楷" font-size="14" fill="#000000" stroke="none" stroke-opacity="0">
诗歌鉴赏</text>
</svg>
